<svg height="512" viewBox="0 0 512 512" width="512" xmlns="http://www.w3.org/2000/svg"><g><g><path d="m160 160v192h-116a19.994 19.994 0 0 1 -20-20v-152a19.994 19.994 0 0 1 20-20z" fill="#898890"/><path d="m376 48v416l-216-112v-192z" fill="#c6c5ca"/></g><g><path d="m380.16 41.16a8 8 0 0 0 -7.84-.26l-214.27 111.1h-114.05a28.031 28.031 0 0 0 -28 28v152a28.031 28.031 0 0 0 28 28h114.05l214.27 111.1a7.97 7.97 0 0 0 3.68.9 7.985 7.985 0 0 0 8-8v-416a8.034 8.034 0 0 0 -3.84-6.84zm-228.16 302.84h-108a12.01 12.01 0 0 1 -12-12v-152a12.01 12.01 0 0 1 12-12h108zm216 106.84-200-103.7v-182.28l200-103.7z"/><path d="m459.314 256 42.343-42.343a8 8 0 0 0 -11.314-11.314l-42.343 42.343-42.343-42.343a8 8 0 0 0 -11.314 11.314l42.343 42.343-42.343 42.343a8 8 0 0 0 11.314 11.314l42.343-42.343 42.343 42.343a8 8 0 0 0 11.314-11.314z"/></g></g></svg>